<svg width="100" height="100" viewBox="0 0 100 100" xmlns="http://www.w3.org/2000/svg">
  <rect width="100" height="100" fill="#f0f2f5"/>
  <path d="M0 0h100v100H0z" fill="#e5e9ee" fill-opacity="0.2"/>
  <path d="M10 0h10v10H10zM30 0h10v10H30zM50 0h10v10H50zM70 0h10v10H70zM90 0h10v10H90zM0 20h10v10H0zM20 20h10v10H20zM40 20h10v10H40zM60 20h10v10H60zM80 20h10v10H80zM10 40h10v10H10zM30 40h10v10H30zM50 40h10v10H50zM70 40h10v10H70zM90 40h10v10H90zM0 60h10v10H0zM20 60h10v10H20zM40 60h10v10H40zM60 60h10v10H60zM80 60h10v10H80zM10 80h10v10H10zM30 80h10v10H30zM50 80h10v10H50zM70 80h10v10H70zM90 80h10v10H90z" fill="#e5e9ee" fill-opacity="0.2"/>
</svg>
